<?xml version="1.0" encoding="utf-8"?>
<!-- Generator: Adobe Illustrator 25.2.2, SVG Export Plug-In . SVG Version: 6.00 Build 0)  -->
<svg version="1.1" id="Layer_2" xmlns="http://www.w3.org/2000/svg" xmlns:xlink="http://www.w3.org/1999/xlink" x="0px" y="0px"
	 viewBox="0 0 1000 1000" style="enable-background:new 0 0 1000 1000;" xml:space="preserve">
<style type="text/css">
	.st0{fill:none;stroke:#CEDCE0;stroke-width:5.47;stroke-miterlimit:10;}
	.st1{fill:#353641;}
	.st2{fill:none;stroke:#000000;stroke-width:5.47;stroke-miterlimit:10;}
	.st3{opacity:0.77;}
	.st4{fill:#FFFFFF;}
	.st5{fill:#D93732;}
	.st6{fill:#FF4D5A;}
	.st7{opacity:0.54;fill:#FFFFFF;enable-background:new    ;}
	.st8{fill:none;stroke:#000000;stroke-width:5.47;stroke-linecap:square;stroke-linejoin:round;}
	.st9{fill:none;}
	.st10{fill:#D9E7EE;}
</style>
<path class="st0" d="M133.4,313c0,0-66.8-200.2,166.3-175.8S421.4,73,509.5,18.1s347.6,116.1,239,281.1s173.5,14,232.3,262.2
	c36.3,153.1-53.8,265.8-128.1,329.7"/>
<path class="st1" d="M875.5,699.8C858,597.1,795.9,505.2,695.2,472.3c-25.8-8.4-52.1-14.8-78.9-19.2v0.1c-1.4,8.5-4.7,16.6-9.6,23.7
	c-10.5,14.6-25,26.5-41.7,32.8c-17.1,6.4-38.3,7.2-54.2-2.8c-9.6-6.1-18.8-16.7-20.5-28.2c-1.9-13,4.6-25.3,13.8-33.8
	c-77.9,0.6-151.1,13.6-209.8,28.4c2,8.6,4.9,17,8.4,25.1c5,11.3,12,21.5,20.8,30.2c10.9-10.9,20.4-23.2,28.4-36.5
	c15.6,5.2,26.6,19.3,28.1,35.8v0.4c3.1,29.4-24.9,51.5-48.4,65.1c-27.2,15.8-57.4,27.7-87.2,37.5c-12.3,4.1-28.2,7.5-41.2,3.3l0,0
	c-1.4-0.4-2.8-1-4.1-1.6c-12.9-6.4-21.6-19.8-28.3-32.1c-19.2-34.9-31.7-72.9-40.2-111.9c-58.8,7.6-65.5-32.7-69-42.6L11.5,588.2
	c-9.5,36.9,12.3,74.7,48.8,84.4c5.6,1.5,11.5,2.2,17.3,2.2h208.1l94.5,245.5L407,990h153c-12.4,0-19.2-3.1-24.1-8.1
	c-5.1-5.2-8-12.1-8-19.4c0-15.1,12.2-27.5,32.1-27.5h1.4c-1.5,0-2.9-0.1-4.4-0.3c0.9-0.1,1.9-0.3,2.8-0.5c-1,0-2-0.1-2.9-0.2
	c18.5-2.2,32.8-17.5,33.9-36.4c0-0.5,0-0.9,0-1.4v-0.7c-0.4-19.3-14.8-35.4-33.8-37.8c1-0.1,2-0.2,3-0.2c-0.9-0.2-1.9-0.4-2.9-0.5
	c1.5-0.1,3-0.2,4.4-0.2l111.9,0.6l20.6,0.1h24.4c1.1,0,2.3,0,3.4,0.1l36.3,0.2l24.3,0.1c21.1,0.2,38.1,17.6,38,39
	c0,5.8-1.3,11.5-3.9,16.7c10.4-1.3,20.1-6.2,27.4-13.8c17.5-18.1,25-45.1,30.2-69.1C883.3,787.9,882.8,742.8,875.5,699.8z
	 M592.6,702.7c-21.1,32.9-57,29.9-57,29.9s-3,2.9-9.9-9.6c-7-12.5-26.8-21.1-26.8-21.1c-1.6,12.6-4.8,31.7-37.2,6.9
	s-22.6-60.9-19.9-79.9c2.8-19.1,13.8-25.4,13.8-25.4l13-7c0,0-37.7-9.8-39.5-10.2s-35.4-28.8-1.3-36.4c34.1-7.5,87.2,22.4,97.5,28.3
	c10.3,5.9,70.3,57.3,70.3,57.3S613.8,669.9,592.6,702.7L592.6,702.7z"/>
<path class="st1" d="M130.6,488.5c0,0,28.4-3.5,39.1-24l-9.3,52.7c0,0,113-39,133.8-44c0,0,6.7,43.6,33.3,55.3l27.4-35.3
	c0,0,34.4,8.8,25,56.3s-139.6,87.1-161.6,86.2c-22.1-0.9-45.8-14.7-70.2-88.6L130.6,488.5z"/>
<path class="st2" d="M176.9,371.1c7.2,11.9,14.4,23.7,21.9,35.4c4.6,7.2,13,17.5,4.1,25c-2.9,2.3-6.4,3.6-10.1,3.8
	c-5.7,0.5-11.8-0.9-15.2-5.9l-17.4-29.2c-7.2-12.1-22.3-16.5-34.8-10.2l0,0"/>
<path class="st2" d="M242.7,409.6c4.5,10.9,1.5,18-3.8,21.5c-8.7,5.8-20.3,3-26.5-5.4L177,371.2"/>
<path class="st2" d="M206.9,355.3c12.9,15.8,29.1,45.3,38.1,57.5c9,12.3,22.9,4.9,22.9,4.9c11.3-6.1,9.4-16.3,4.4-28.7
	c-12.1-30.4-29.5-50.6-48.8-63.9c-59.9-41-121.3-10.8-139.6,60.1l-72.3,203c-9.5,36.9,12.3,74.7,48.8,84.4
	c5.6,1.5,11.5,2.2,17.3,2.2h208.1L407,989.9"/>
<path class="st2" d="M281.1,375.1c14.9-5.2,14.2-29.3-6.9-37.4c-23.4-9-64.8-21.7-75.2-24.8c-0.1-0.1-0.1-0.1-0.2-0.1
	c-0.7-0.2-1.2-0.4-1.6-0.5l-0.6-0.2"/>
<path class="st2" d="M501.2,615.6c-13-15.9-48.7-24.9-72-29.2c-8-1.5-14.1-8.3-14.9-16.5c-0.3-2.7,0-5.4,0.9-8
	c2.9-8.1,10.8-13.2,19.3-12.4c39.7,4.1,80.7,16.7,111,44c0,0,146.9,113.5,164.4,124.6l0,0c7.2,4.4,14-0.8,9.1-7.8l-1.5-2.7
	c-8.6-15-18.9-29-30.5-41.8"/>
<path class="st2" d="M504,444.8c-184.7,1.6-343.5,72.4-343.5,72.4l15.9-90"/>
<path class="st1" d="M790.9,934.4c0,0-20.1-4.6-25.5,11.7s-10.9,42.3,27.5,43.8c38.5,1.5,15.9-6.1,13.7-18.7
	S790.9,934.4,790.9,934.4z"/>
<path class="st2" d="M483.5,636.3c0,0-21.7-16.7-41.3,0.2c-0.8,0.7-1.5,1.6-2.1,2.5"/>
<g class="st3">
	<path class="st4" d="M212.3,425.6c6.2,8.4,17.8,11.2,26.5,5.4c5.3-3.5,8.3-10.5,3.9-21.4c0.8,1.2,1.5,2.2,2.3,3.2
		c9,12.3,22.9,4.9,22.9,4.9c11.3-6.1,9.4-16.3,4.4-28.7c-4.8-12.3-11.1-23.9-18.8-34.6c5-4.8,11-9.6,17.3-7.5
		c6.8,2.3,8.7,10.9,9.5,18.1c0.4,3.3,0.7,6.6,1.1,10l5.4,49.2c1.8,16.3,3.6,32.9,7.6,48.9c2,8.6,4.9,17,8.4,25.1
		c5,11.3,12,21.5,20.8,30.2c10.9-10.9,20.4-23.2,28.4-36.5c15.6,5.2,26.6,19.3,28.1,35.8v0.4c3.1,29.4-24.9,51.5-48.4,65.1
		c-27.2,15.8-57.4,27.7-87.2,37.5c-12.3,4.1-28.2,7.5-41.2,3.3l0,0c-1.4-0.4-2.8-1-4.1-1.6c-12.9-6.4-21.6-19.8-28.3-32.1
		c-32.3-58.8-45.7-126.2-52.7-193.1c14.1-2,28.2-4.2,42.1-7.2c0,0,0,0.1,0.1,0.1l16,26.9l1.3,2.2c3.5,5,9.5,6.4,15.2,5.9
		c3.7-0.2,7.2-1.5,10.1-3.8c8.9-7.5,0.5-17.8-4.1-25"/>
	<path class="st5" d="M212.3,425.6c6.2,8.4,17.8,11.2,26.5,5.4c5.3-3.5,8.3-10.5,3.9-21.4c0.8,1.2,1.5,2.2,2.3,3.2
		c9,12.3,22.9,4.9,22.9,4.9c11.3-6.1,9.4-16.3,4.4-28.7c-4.8-12.3-11.1-23.9-18.8-34.6c5-4.8,11-9.6,17.3-7.5
		c6.8,2.3,8.7,10.9,9.5,18.1c0.4,3.3,0.7,6.6,1.1,10l5.4,49.2c1.8,16.3,3.6,32.9,7.6,48.9c2,8.6,4.9,17,8.4,25.1
		c5,11.3,12,21.5,20.8,30.2c10.9-10.9,20.4-23.2,28.4-36.5c15.6,5.2,26.6,19.3,28.1,35.8v0.4c3.1,29.4-24.9,51.5-48.4,65.1
		c-27.2,15.8-57.4,27.7-87.2,37.5c-12.3,4.1-28.2,7.5-41.2,3.3l0,0c-1.4-0.4-2.8-1-4.1-1.6c-12.9-6.4-21.6-19.8-28.3-32.1
		c-32.3-58.8-45.7-126.2-52.7-193.1c14.1-2,28.2-4.2,42.1-7.2c0,0,0,0.1,0.1,0.1l16,26.9l1.3,2.2c3.5,5,9.5,6.4,15.2,5.9
		c3.7-0.2,7.2-1.5,10.1-3.8c8.9-7.5,0.5-17.8-4.1-25"/>
	<path class="st6" d="M216.1,429.6c5.5,7.5,14.9,6.6,22.7,1.4c4.7-3.1,8.5-2.2,4.6-11.9c0.7,1.1,0.8-2.5,1.5-1.7
		c8,11,0.1-4.6,0.1-4.6c11.2,14.3,35.5,0.8,31-10.2c-4.7-11.9-9.7-29.5-16-38.3c5-4.8,4-4,10.3-0.3c3.4,2.2,5.6,6,5.9,10.1
		c0.5,4.8,1,9.4,1.5,14.1l4.8,44c1.6,14.6,3.2,29.4,6.8,43.6c1.8,7.7,4.3,15.2,7.5,22.4c4.4,9.9,18.7,26.5,26.5,34.1
		c9.7-9.7,21.3-27.7,28.4-39.6c13.7,4.2,13.1,17.5,14,31.9v0.4c2.8,26.3-22.2,46-43.2,58.1c-24.3,14.1-51.3,24.7-77.8,33.5
		c-10.9,3.6-25.2,6.8-36.7,2.9l0,0c-1.2-0.4-2.5-0.9-3.6-1.5c-11.5-5.7-19.2-17.7-25.3-28.7c-26.4-47.9-38.6-102.3-45.3-156.9
		c-1-8.5,4.8-16.3,13.1-17.6c7.6-1.3,15.1-2.5,22.6-4.2l0.2,0.1l14.3,24l0,0c3.1,4.5,3.6,1,8.8,0.5c3.2-0.3,9.5-0.9,12-3.1
		c8-6.7,3.5-9.5-0.7-15.9"/>
</g>
<path class="st2" d="M480.9,660.6c0,0-41.2-13.7-41.8,9.4"/>
<path class="st7" d="M111.8,895.6L31,685.9c-3.6-14.7,5.2-29.7,19.8-33.4c2.2-0.5,4.4-0.8,6.6-0.8h321.1c14.8,0,27.8,10.3,31.2,24.9
	l88.5,209.7c3.5,14.8-5.5,29.6-20.1,33.2c-2.1,0.5-4.2,0.8-6.3,0.8H143C128.3,920.3,115.4,910.1,111.8,895.6z"/>
<path class="st2" d="M494.3,695.9c0,0,6.7,6.2,4.1,15.1c-1.9,6.6-8.3,10.7-14.7,8.5c-20.4-7.1-38.7-19.2-43.2-39.8
	c-2.1-10.4-2.6-21.1-1.4-31.7c1-9.8,2.4-20.4,5.7-29.7c5-14.3,20.2-24.3,34.9-17.4"/>
<path class="st5" d="M111.8,895.6L31,685.9c-3.6-14.7,5.2-29.7,19.8-33.4c2.2-0.5,4.4-0.8,6.6-0.8h321.1c14.8,0,27.8,10.3,31.2,24.9
	l88.5,209.7c3.5,14.8-5.5,29.6-20.1,33.2c-2.1,0.5-4.2,0.8-6.3,0.8H143C128.3,920.3,115.4,910.1,111.8,895.6z"/>
<path class="st8" d="M111.8,895.6L31,685.9c-3.6-14.7,5.2-29.7,19.8-33.4c2.2-0.5,4.4-0.8,6.6-0.8h321.1c14.8,0,27.8,10.3,31.2,24.9
	l88.5,209.7c3.5,14.8-5.5,29.6-20.1,33.2c-2.1,0.5-4.2,0.8-6.3,0.8H143C128.3,920.3,115.4,910.1,111.8,895.6z"/>
<path class="st6" d="M123.7,887.2L49.1,693.6c-3.4-13.6,4.8-27.4,18.3-30.8c2-0.5,4-0.8,6.1-0.8h296.3c13.7,0,25.6,9.5,28.8,23
	l81.7,193.5c3.2,13.6-5.1,27.4-18.6,30.6c-1.9,0.5-3.9,0.7-5.8,0.7H152.4C138.8,909.8,127,900.5,123.7,887.2z"/>
<line class="st2" x1="757.7" y1="856.8" x2="814.5" y2="989.9"/>
<line class="st2" x1="816.8" y1="990.1" x2="403.3" y2="990.1"/>
<path class="st2" d="M498.9,389.2c-9.2,9.2-23,9.2-30.8,0.7"/>
<path class="st2" d="M253.4,354.4c5-4.8,11-9.6,17.3-7.5c6.8,2.3,8.7,10.9,9.5,18.1c2.2,19.8,4.3,39.5,6.5,59.2
	c2.8,25.1,5.7,50.9,16,74c5,11.3,12,21.5,20.8,30.2"/>
<path class="st2" d="M379.9,528.3v-0.4c-1.4-16.6-12.5-30.7-28.1-35.8c-8,13.3-17.5,25.5-28.4,36.5c-28.6,28.8-65.3,47.8-105.1,54.5
	c1.9,7.7,5.8,14.7,8.6,22.1s4.1,16,0.8,23.2c-4.2,9.1-16.1,7.9-24.5,5.9l0,0c-0.1,0-0.1,0-0.2,0"/>
<path class="st2" d="M160.2,400.2c-13.9,3-28,5.2-42.1,7.2c7.1,66.8,20.4,134.3,52.7,193.1c6.7,12.3,15.4,25.7,28.3,32.1
	c1.3,0.6,2.7,1.2,4.1,1.6l0,0c12.9,4.3,28.9,0.8,41.2-3.3c29.8-9.9,60-21.7,87.2-37.5c23.4-13.6,51.4-35.7,48.4-65.1
	c-0.3-3.2-0.9-6.4-1.9-9.5"/>
<path class="st6" d="M392.6,266.9L392.6,266.9c4.3,18,19.4,31.3,37.7,33c0.7-3.6,2.3-7,4.7-9.9c9.9-11.9,14.2,10.4,45.9-5.6
	c44-22.2,60.7-9.5,60.7-9.5c1.5,1.1,1.2,11.3,1.5,13.2c1.2,10.6,2.4,21.1,3.6,31.7c0.7,6.5,1.5,12.9,2.2,19.3c0.6-1.1,1.3-2.1,2-3.2
	c4-14.4,11.2-31.3,26.6-24c3.1,1.5,5.8,3.8,7.9,6.6c10.2,13.6,2.5,26.8-8.2,36.5c-2.7,3-5.7,5.7-9,8.1c1.8,3.7,9,18.4,9,18.4
	c0.7,1.5,25.9-27.4,27.8-30.5c2.8-7.7,4.3-15.8,4.4-24c0.4-33.7-13.1-73-40.1-92.3c-6.7-4.8-4.6-9.4-5-15.9c-0.1-1-0.9-1.7-1.9-1.6
	c-0.5,0-0.9,0.3-1.2,0.7c-8.5,9.9-29.4,8.9-29.4,8.9c-72.6-18.4-97.1,14.3-111.7,20.1c-6,2.3-12.6,2.4-18.6,0.3
	c-0.7,4.1-3.7,7.5-7.6,8.8l0.4,3.4C394.6,262,394,264.7,392.6,266.9z"/>
<line class="st9" x1="423" y1="315.5" x2="423" y2="315.5"/>
<path class="st2" d="M430.4,299.9L430.4,299.9c-18.2-1.7-33.4-14.9-37.7-33l0,0c-0.8-3.4-1.3-6.8-1.5-10.3l0.6-0.1
	c0.8-0.1,1.5-0.2,2.3-0.5c4-1.3,6.9-4.7,7.6-8.8c0.2-1.1,0.3-2.3,0.1-3.4l-1.9-16.6c0,0,13.1,9.9,27.7,4.1s39-38.5,111.7-20.1
	c0,0,16.4,1,24.8-8.9c0.6-0.8,1.7-0.9,2.4-0.3c0.4,0.3,0.6,0.8,0.7,1.2c0.4,6.5,2.8,11.1,9.5,15.9c27,19.4,40.5,58.6,40.1,92.3
	c-0.1,14-4.7,27.8-11.8,39.7c-1.9,3.1-27,32-27.8,30.5c0,0-7.2-14.7-9-18.4l-0.4-0.8l0.8-0.5c3-2.1,5.9-4.3,8.6-6.7
	c10.7-9.7,18.5-22.9,8.2-36.5c-2.1-2.8-4.8-5.1-7.9-6.6c-15.5-7.3-22.6,9.7-26.6,24c-0.8,2.7-1.3,5.6-1.4,8.4
	c-0.2-1.8-0.4-3.5-0.6-5.2l0,0c-0.7-6.4-1.4-12.8-2.2-19.3c-1.2-10.6-2.4-21.1-3.6-31.7c-0.2-1.8,0-12.1-1.5-13.2
	c0,0-16.7-12.7-60.7,9.5c-31.8,16-36-6.3-45.9,5.6C432.7,292.9,431.1,296.3,430.4,299.9c-0.2,1.2-0.4,2.4-0.4,3.6c0,0.2,0,0.3,0,0.5
	c-0.1,2.6-0.2,5.2-0.3,7.7c-0.2,24.5,2.4,50.1,11.9,72.8c11.5,27.6,42.1,54.8,73.9,41.9c9.9-4,18.8-10.5,27-17.4"/>
<ellipse transform="matrix(0.9542 -0.2993 0.2993 0.9542 -84.9149 150.786)" cx="449.8" cy="352.6" rx="6" ry="7.4"/>
<ellipse transform="matrix(0.9542 -0.2993 0.2993 0.9542 -82.2939 164.8757)" cx="497.1" cy="351.1" rx="6" ry="7.4"/>
<path class="st2" d="M481.3,366.4c0,0-15.7,9-16.7-0.3c-0.3-2.9-4.1-31.2-4.1-31.2s-12.7-13.6-32.2-3.6"/>
<path class="st2" d="M477.8,326.9c0,0,25.4-12.8,42.2,5.7"/>
<path class="st2" d="M501.1,429.6l2.9,15.2c-9.2,8.6-15.7,20.9-13.8,33.8c1.7,11.5,11,22.2,20.5,28.2c15.9,10.1,37.1,9.3,54.2,2.9
	c16.7-6.3,31.2-18.2,41.7-32.8c4.9-7,8.2-15.1,9.6-23.6v-0.2"/>
<line class="st2" x1="504" y1="444.8" x2="509.7" y2="472.1"/>
<path class="st2" d="M584.4,375.1l8.6,57.8c1.8,11.7,11.7,20.3,23.4,20.3l0,0c26.7,4.4,53.1,10.8,78.9,19.2
	C796,505.2,858,597.1,875.5,699.8c7.3,43,7.8,88.1-1.3,130.9c-5.2,24.1-12.7,51.1-30.2,69.1c-22.7,23.5-57.5,13.8-84.3,3.2
	c-83.2-32.8-152.4-91.1-212.2-157.8c-32-35.7-73.2-64.3-73.2-64.3"/>
<path class="st10" d="M151.2,843.9c-9.3-0.1-17.5-7.7-19.6-18.3c-4.1-20.9-5.2-53.2,25-60.2c37.8-8.8,66.9,32.9,81.1,59.2
	c4.8,8.8-0.6,20.1-9.6,20.1L151.2,843.9z"/>
<ellipse transform="matrix(0.8409 -0.5411 0.5411 0.8409 -369.023 196.2978)" class="st10" cx="149.4" cy="725.9" rx="17.5" ry="26"/>
<path class="st4" d="M784.9,935.1c-0.6,0.1-1.2,0.2-1.8,0.3h-0.2l-88.3-0.5L562,934.3c-0.5,0-1,0-1.5,0c-1,0-2-0.1-2.9-0.2
	c18.5-2.2,32.8-17.5,33.9-36.4c0-0.5,0-0.9,0-1.4v-0.7c-0.1-18.4-12.9-34.3-30.7-37.9c-0.9-0.2-1.9-0.4-2.9-0.5
	c1.5-0.1,3-0.2,4.4-0.2l111.9,0.6l20.6,0.1l27.8,0.1c19.7,1.8,34.8,18.5,34.9,38.6c0,1.8-0.1,3.7-0.4,5.5
	c-2.7,19-18.8,33.2-37.8,33.3h67.3C782.7,935,783.8,935,784.9,935.1z"/>
<path class="st10" d="M605.8,981.9c5.1,5.2,12,8.1,19.3,8.1h-65c-12.4,0-19.2-3.1-24.1-8.1c-5.1-5.2-7.9-12.1-8-19.4
	c0-15.1,12.2-27.5,32.1-27.5h65c-15,0-27.1,12.2-27.2,27.4C597.8,969.7,600.7,976.7,605.8,981.9L605.8,981.9z"/>
<path class="st6" d="M820.5,896.9c0,5.8-1.4,11.5-3.9,16.7l0,0c-1.8,3.9-4.3,7.5-7.4,10.5c-5,5.1-11.4,8.6-18.3,10.2
	c-2.8,0.7-5.8,1-8.7,1c0.6-0.1,1.2-0.2,1.8-0.3c-1-0.1-2.1-0.1,1.8-0.1h-67.3c19-0.1,35.1-14.2,37.8-33.3c0.3-1.8,0.4-3.6,0.4-5.5
	c-0.1-20.1-15.2-36.8-34.9-38.6l36.3,0.2l24.3,0.1C803.6,858.2,820.6,875.6,820.5,896.9z"/>
<path class="st8" d="M820.5,896.9c-0.2,21.4-17.4,38.6-38.5,38.5l-220.9-1.2c-1.5,0-3-0.1-4.4-0.3c21-2.4,36.1-21.6,33.7-42.9
	c-2-17.8-15.8-31.9-33.3-34.1c1.5-0.2,3-0.2,4.4-0.2l220.9,1.2C803.5,858.1,820.6,875.5,820.5,896.9z"/>
<path class="st8" d="M756.8,896.2c0,21.4-17.1,38.7-38.3,38.7H561.4c-1.5,0-3-0.1-4.4-0.3c21-2.5,36-21.8,33.5-43.1
	c-2.1-17.8-15.9-31.8-33.5-33.9c1.5-0.1,3-0.2,4.4-0.2h157.1C739.6,857.6,756.7,874.9,756.8,896.2z"/>
<path class="st8" d="M527.9,962.4c0,7.3,2.9,14.3,7.9,19.4c5,5,11.7,8.1,24.1,8.1h225.8c-3.9,0-2.8-0.1-1.8-0.2
	c-14.9-1.8-25.6-15.4-23.8-30.5c1.5-12.6,11.3-22.6,23.8-24.1c-1.1-0.1-2.1-0.2,1.8-0.2H560C540.1,935,527.9,947.3,527.9,962.4z"/>
<path class="st8" d="M597.8,962.4c0,15.2,12.2,27.5,27.1,27.5h156c1,0,2.1-0.1,3.2-0.2c-14.9-1.8-25.6-15.4-23.8-30.5
	c1.5-12.6,11.3-22.6,23.8-24.1c-1.1-0.1-2.1-0.2-3.2-0.2h-156C610,935,597.8,947.3,597.8,962.4z"/>
<path class="st10" d="M345,752.7h-69.7c-6.5,0-12.4-3.9-15-10c-1.6-3.6,0-7.8,3.5-9.5c1-0.4,2-0.7,3-0.6h74.1
	C337.4,738.6,339.2,746.8,345,752.7z"/>
<path class="st5" d="M390,745.4c0,4-3.2,7.2-7.2,7.3H345c-5.8-5.9-7.6-14.1-4.1-20.1h33.5c6.5,0,12.4,3.9,15,9.9
	C389.8,743.4,390,744.4,390,745.4z"/>
<path class="st4" d="M372.6,752.7c-0.2,0.4-0.4,0.7-0.7,1.1c-5,6.9-15.8,7.5-24.1,1.3c-1-0.7-1.9-1.6-2.8-2.4
	c-5.8-5.9-7.6-14.1-4.1-20.1c0.2-0.4,0.4-0.7,0.7-1.1c5-6.9,15.7-7.5,24.1-1.4c1,0.8,2,1.6,2.8,2.5
	C374.3,738.5,376,746.7,372.6,752.7z"/>
<path class="st5" d="M407.5,789.7c0,4-3.2,7.2-7.2,7.2h-73.1c3.5-6,1.8-14.2-4-20.1h68.7c6.5,0,12.4,3.9,15,9.9
	C407.3,787.7,407.5,788.7,407.5,789.7z"/>
<path class="st10" d="M327.2,797h-34.4c-6.5,0-12.4-3.9-15-9.9c-0.4-0.9-0.6-1.9-0.6-2.9c0-4,3.2-7.2,7.1-7.2l0,0h38.9
	C329,782.8,330.8,791,327.2,797z"/>
<path class="st4" d="M327.2,797c-0.2,0.4-0.4,0.8-0.6,1.1c-5,6.9-15.7,7.5-24.1,1.4c-1-0.8-2-1.6-2.9-2.5
	c-5.7-5.9-7.5-14.1-4.1-20.1c0.2-0.4,0.4-0.8,0.7-1.1c5-6.9,15.8-7.5,24.1-1.3c1,0.7,1.9,1.5,2.8,2.4C329,782.8,330.8,791,327.2,797
	z"/>
<path class="st5" d="M351.6,840.9h-43.8c-6.5,0-12.4-3.9-15-9.9c-1.6-3.6,0-7.9,3.6-9.5c0.9-0.4,2-0.7,3-0.6h48.2
	C344.1,826.9,345.8,835,351.6,840.9z"/>
<path class="st10" d="M422.5,833.7c0,4-3.2,7.2-7.2,7.2h-63.8c-5.7-5.9-7.5-14.1-4.1-20.1h59.3c6.5,0,12.4,3.9,15,9.9
	C422.3,831.7,422.5,832.7,422.5,833.7z"/>
<path class="st4" d="M379.2,840.9c-0.2,0.4-0.4,0.8-0.7,1.1c-5,6.9-15.7,7.5-24.1,1.4c-1-0.8-2-1.6-2.8-2.5
	c-5.7-5.9-7.5-14.1-4.1-20.1c0.2-0.4,0.4-0.8,0.7-1.1c5-6.9,15.8-7.5,24.1-1.3c1,0.7,1.9,1.5,2.8,2.4
	C380.9,826.7,382.7,835,379.2,840.9z"/>
<path class="st1" d="M48.5,440.2l1.1,0.3l-0.4,1.6C48.9,441.5,48.7,440.8,48.5,440.2z"/>
<ellipse transform="matrix(0.9644 -0.2646 0.2646 0.9644 -125.2841 79.4841)" class="st10" cx="232.4" cy="504.8" rx="30.9" ry="37.4"/>
</svg>
